PathFileType	4	(X/Y/Z)	traj.trc
DataRate	CameraRate	NumFrames	NumMarkers	Units	OrigDataRate	OrigDataStartFrame	OrigNumFrames
30.00	30.00	104	1	mm	30.00	1	200
Frame#	Time	wrist		
		X1	Y1	Z1

0	0.0	512.0182037353516	563.6595487594604	13.592164032161236
1	0.020100502512562814	512.0182037353516	563.6595487594604	13.592164032161236
2	0.04020100502512563	512.0180400926567	563.6602986014038	13.592119731280198
3	0.06030150753768844	512.0172284743121	563.6640175909833	13.59190001228956
4	0.08040201005025126	512.015137317357	563.6735996697714	13.591333900275934
5	0.10050251256281408	512.011154593772	563.6918492665279	13.590255708769028
6	0.12060301507537688	512.0046876101193	563.7214822152808	13.58850498550121
7	0.1407035175879397	511.99516280718524	563.7651266734059	13.58592645816706
8	0.16080402010050251	511.9820255596218	563.8253240397071	13.582369980182934
9	0.18090452261306533	511.9647399755878	563.9045298724959	13.577690476446518
10	0.20100502512562815	511.942788696391	564.0051148076731	13.571747889096386
11	0.22110552763819097	511.91567269612983	564.1293654768068	13.564407123271558
12	0.24120603015075376	511.8829110813343	564.2794854252146	13.555537992871061
13	0.2613065326633166	511.84404089060865	564.4575960300422	13.545015166313487
14	0.2814070351758794	511.79861689427196	564.6657374183443	13.532718112296541
15	0.30150753768844224	511.74621139400045	564.9058693851644	13.518531045556612
16	0.32160804020100503	511.6864140224691	565.1798723116152	13.502342872628327
17	0.3417085427135678	511.61883154299295	565.4895480829587	13.484047137604104
18	0.36180904522613067	511.5430876491689	565.8366210066856	13.463541967893715
19	0.38190954773869346	511.45882276451727	566.2227387305968	13.440730019983842
20	0.4020100502512563	511.36569384212396	566.6494731608822	13.415518425197638
21	0.4221105527638191	511.263374164281	567.1183213802017	13.387818735454275
22	0.44221105527638194	511.15155314212933	567.6307065657647	13.35754686902852
23	0.4623115577889447	511.0299361152998	568.187978907411	13.324623056310275
24	0.4824120603015075	510.8982441515546	568.79141652569	13.288971785564144
25	0.5025125628140703	510.7562138464298	569.4422263899413	13.250521748688989
26	0.5226130653266332	510.60359712287584	570.1415452363754	13.209205786977488
27	0.542713567839196	510.4401610309003	570.8904404861526	13.164960836875697
28	0.5628140703517588	510.2656875472086	571.6899111634638	13.117727875742599
29	0.5829145728643216	510.079973374846	572.5408888136112	13.067451867609668
30	0.6030150753768845	509.8828297428395	573.444238421087	13.014081708940427
31	0.6231155778894473	509.6740822058389	574.4007593276552	12.957570174390007
32	0.6432160804020101	509.45357044375896	575.4111861504301	12.8978738625647
33	0.6633165829145728	509.2211480614208	576.4761896999577	12.834953141781519
34	0.6834170854271356	508.9766823881937	577.5963778982949	12.768772095827762
35	0.7035175879396985	508.7200542776362	578.7722966970906	12.699298469720556
36	0.7236180904522613	508.45115790713845	580.004430995665	12.626503615466437
37	0.7437185929648241	508.1699005775636	581.2932055590899	12.550362437820882
38	0.7638190954773869	507.8762025128889	582.638985936269	12.470853340047885
39	0.7839195979899498	507.56999665984836	584.0420793780182	12.387958169679509
40	0.8040201005025126	507.25122848757354	585.5027357551451	12.301662164275447
41	0.8241206030150754	506.9198557872353	587.0211484765298	12.211953897182575
42	0.8442211055276382	506.575848471686	588.5974554072045	12.118825223294511
43	0.864321608040201	506.2191883751004	590.2317397864342	12.02227122481118
44	0.8844221105527639	505.84986905261775	591.9240311457963	11.92229015699836
45	0.9045226130653267	505.4678955799834	593.6743062272607	11.81888339394725
46	0.9246231155778895	505.0732843531901	595.4824899012706	11.712055374334025
47	0.9447236180904522	504.6660628881202	597.3484560848218	11.601813547179392
48	0.964824120603015	504.2462696201866	599.2720286595436	11.488168317608148
49	0.9849246231155779	503.81395370397496	601.2529823897779	11.371132992608741
50	1.0050251256281406	503.36917481288515	603.2910438406606	11.250723726792826
51	1.0251256281407035	502.9120029387727	605.3858922962006	11.126959468154823
52	1.0452261306532664	502.4425181915907	607.5371606773609	10.999861903831475
53	1.065326633165829	501.9608105990312	609.7444364601378	10.869455405861405
54	1.085427135678392	501.4669799061672	612.0072625936416	10.735766976944678
55	1.105527638190955	500.9611353750938	614.3251384181765	10.598826196202355
56	1.1256281407035176	500.44339558457017	616.6975205833211	10.458665164936049
57	1.1457286432160805	499.91388822966115	619.1238239660078	10.315318452387485
58	1.1658291457286432	499.3727499213788	621.6034225886038	10.168823041498069
59	1.185929648241206	498.820125986324	624.1356505369906	10.019218274668424
60	1.206030150753769	498.2561702663284	626.7198028786443	9.866545799517963
61	1.2261306532663316	497.6810449180955	629.3551365807157	9.71084951464445
62	1.2462311557788945	497.09492021284274	632.0408714281107	9.55217551538354
63	1.2663316582914572	496.49797433594296	634.7761909415699	9.390572039568362
64	1.2864321608040201	495.89039318656614	637.5602432957493	9.226089413289056
65	1.306532663316583	495.27237017732085	640.3921422372998	9.058779996652337
66	1.3266331658291457	494.6441060338961	643.270968002948	8.888698129541057
67	1.3467336683417086	494.0058085947027	646.1957682375761	8.715900077373764
68	1.3668341708542713	493.35769261051524	649.1655589123015	8.540443976864251
69	1.3869346733668342	492.69997954411355	652.1793252425578	8.36238978178112
70	1.407035175879397	492.03289736992417	655.236022606174	8.181799208707346
71	1.4271356783919598	491.3566803736622	658.3345774614555	7.998735682799817
72	1.4472361809045227	490.67156895197303	661.473888265264	7.8132642835489134
73	1.4673366834170853	489.97780941207355	664.6528263910969	7.625451690538051
74	1.4874371859296482	489.2756537713944	667.8702370471683	7.435366129203243
75	1.5075376884422111	488.565359557221	671.124940194489	7.243077316592663
76	1.5276381909547738	487.84718960633546	674.4157314649461	7.0486564071261935
77	1.5477386934673367	487.1214118646584	677.7413830793837	6.852175938354994
78	1.5678391959798996	486.3882991868903	681.1006447656827	6.65370977672105
79	1.5879396984924623	485.64812913615305	684.492244676841	6.453333063316737
80	1.6080402010050252	484.90118378363206	687.9148903090538	6.251122159644378
81	1.6281407035175879	484.1477495082174	691.3672694197934	6.047154593375796
82	1.6482412060301508	483.3881167961456	694.8480509458897	5.841509004111879
83	1.6683417085427137	482.62258004064137	698.3558859216098	5.634265089142132
84	1.6884422110552764	481.85143734155923	701.8894083967389	5.425503549204241
85	1.7085427135678393	481.0749903050251	705.4472363546596	5.215306034243627
86	1.728643216080402	480.29354384307777	709.0279726304325	5.003755089173001
87	1.7487437185929648	479.50740597331094	712.6302058288766	4.790934099631931
88	1.7688442211055277	478.71688761851425	716.2525112426486	4.576927237746392
89	1.7889447236180904	477.92230240631574	719.8934517703235	4.361819407888326
90	1.8090452261306533	477.12396646882263	723.5515788344752	4.145696192435202
91	1.829145728643216	476.3221982422634	727.2254332997557	3.928643797529571
92	1.849246231155779	475.5173182666296	730.9135463909755	3.7107489988386244
93	1.8693467336683418	474.70964898531696	734.6144406111846	3.492099087313757
94	1.8894472361809045	473.89951454476756	738.3266306597515	3.2727818149501187
95	1.9095477386934674	473.087240594111	742.0486243504433	3.0528853405461747
96	1.92964824120603	472.2731540848064	745.7789235295073	2.8324981754632628
97	1.949748743718593	471.4575830702838	749.5160249937494	2.611709129385152
98	1.9698492462311559	470.640856505586	753.2584214086148	2.390607256077603
99	1.9899497487437185	469.82330404701	757.0046022262688	2.169281799147922
100	2.0100502512562812	469.0052558517487	760.753054603676	1.947822137804518
101	2.030150753768844	468.1870423775326	764.5022643206811	1.7263177326164674
102	2.050251256281407	467.36899418227125	768.2507166980884	1.5048580712730635
103	2.07035175879397	466.55144172369523	771.9968975157423	1.283532614343382
